<svg xmlns="http://www.w3.org/2000/svg" viewBox="-10 -5 800 800"><path fill="#61afef" d="M389-5Q223-5 109 112q-58 58-88.5 131T-10 395.5q0 79.5 30 152t87.5 130Q165 735 237.5 765t152 30q79.5 0 153.5-30.5T676 676q56-55 85-127t29-153.5q0-81.5-29.5-154T675 113Q557-5 389-5Zm2 73q135 0 232 96 46 47 70.5 106T718 395q0 138-94 230-48 47-108.5 72t-125 25q-64.5 0-124-24.5T160 626q-47-47-72.5-106.5T62 395q0-65 25.5-124.5T160 163q94-95 231-95ZM279 271q-50 0-83.5 33.5T162 396q0 58 33 91t86 33q34 0 62-17t43-46l-49-25q-14 34-49 34-27 0-40.5-19T234 395q0-70 54-70 11 0 23.5 7t20.5 25l54-28q-32-58-107-58Zm232 0q-51 0-84 33.5T394 396q0 58 32.5 91t86.5 33q33 0 60.5-17t44.5-46l-50-25q-14 34-49 34-27 0-40.5-19T465 395q0-70 54-70 11 0 23.5 7t21.5 25l52-28q-31-58-105-58Z"/></svg>