<svg xmlns="http://www.w3.org/2000/svg" xml:space="preserve" id="Layer_1" x="0" y="0" version="1.1" viewBox="0 0 64 64"><style>.st4{fill:none;stroke:#fff;stroke-width:3;stroke-linecap:round;stroke-linejoin:round;stroke-miterlimit:10}</style><circle cx="32" cy="32" r="32" fill="#77b3d4"/><path fill="#231f20" d="m35.4 46.5-12-32c-.2-.6-.8-1-1.4-1s-1.2.4-1.4 1l-12 32c-.3.8.1 1.6.9 1.9.8.3 1.6-.1 1.9-.9L16.1 35h11.8l4.7 12.5c.2.6.8 1 1.4 1 .2 0 .4 0 .5-.1.8-.3 1.2-1.2.9-1.9zM17.2 32 22 19.3 26.8 32h-9.6zM53 48.5h-8c-4.7 0-8.5-3.8-8.5-8.5 0-4.6 3.7-8 8.5-8h6.5v-1c0-1.6-.5-2.7-1.5-3.5-2.5-2-7.9-1.4-9.7-1-.8.2-1.6-.3-1.8-1.1-.2-.8.3-1.6 1.1-1.8.3-.1 8-1.8 12.2 1.6 1.7 1.4 2.6 3.4 2.6 5.9v16c.1.7-.6 1.4-1.4 1.4zM45 35c-3.2 0-5.5 2.1-5.5 5 0 3 2.5 5.5 5.5 5.5h6.5V35H45z" opacity=".2"/><path d="m10 45 12-32 12 32M16 31.5h12M40 23s13-2.9 13 6v16h-8c-3.9 0-7-3.1-7-7h0c0-3.9 3.1-6.5 7-6.5h7" class="st4"/></svg>