<svg xmlns="http://www.w3.org/2000/svg" xml:space="preserve" viewBox="0 0 64 64"><style>.st0{fill:#4f5d73}.st1{opacity:.2}.st2{fill:#231f20}.st3{fill:#76c2af}.st4{fill:#e0e0d1}</style><g id="Layer_1"><circle cx="32" cy="32" r="32" class="st0"/><g class="st1"><path d="M50 33.1c-2.2 0-4-1.8-4-4 0-.4.1-.7.1-1H21.9c.1.3.1.7.1 1 0 2.2-1.8 4-4 4-.3 0-.7-.1-1-.1v8.2c.3-.1.7-.1 1-.1 2.2 0 4 1.8 4 4 0 .3-.1.7-.1 1h24.2c-.1-.3-.1-.7-.1-1 0-2.2 1.8-4 4-4 .4 0 .7.1 1 .1V33c-.3 0-.7.1-1 .1zM34 43c-3.3 0-6-2.7-6-6s2.7-6 6-6 6 2.7 6 6-2.7 6-6 6z" class="st2"/><path d="M50 25H18c-.3 0-.5 0-.8.1-1.8.4-3.2 2-3.2 3.9V44.9c0 2.2 1.8 4 4 4H49.9c2 0 3.6-1.4 3.9-3.2.2-.2.2-.4.2-.7V29c0-2.2-1.8-4-4-4zm0 16c-2.2 0-4 1.8-4 4 0 .3.1.7.1 1H21.9c.1-.3.1-.7.1-1 0-2.2-1.8-4-4-4-.3 0-.7.1-1 .1v-8.2c.3.1.7.1 1 .1 2.2 0 4-1.8 4-4 0-.4-.1-.7-.1-1h24.2c-.1.3-.1.7-.1 1 0 2.2 1.8 4 4 4 .4 0 .7-.1 1-.1v8.2c-.3-.1-.7-.1-1-.1z" class="st2"/><circle cx="34" cy="37" r="6" class="st2"/></g><path d="M18 46c-1.7 0-3-1.3-3-3V27c0-1.7 1.3-3 3-3h32c1.7 0 3 1.3 3 3v16c0 1.7-1.3 3-3 3H18z" class="st3"/><path d="M50 25c1.1 0 2 .9 2 2v16c0 1.1-.9 2-2 2H18c-1.1 0-2-.9-2-2V27c0-1.1.9-2 2-2h32m0-2H18c-2.2 0-4 1.8-4 4v16c0 2.2 1.8 4 4 4h32c2.2 0 4-1.8 4-4V27c0-2.2-1.8-4-4-4z" class="st4"/><circle cx="34" cy="35" r="6" class="st0"/><circle cx="50" cy="27" r="4" class="st4"/><circle cx="18" cy="27" r="4" class="st4"/><circle cx="50" cy="43" r="4" class="st4"/><g><circle cx="18" cy="43" r="4" class="st4"/></g><g><g class="st1"><path d="M48 29.1c-2.2 0-4-1.8-4-4 0-.4.1-.7.1-1H19.9c.1.3.1.7.1 1 0 2.2-1.8 4-4 4-.3 0-.7-.1-1-.1v8.2c.3-.1.7-.1 1-.1 2.2 0 4 1.8 4 4 0 .3-.1.7-.1 1h24.2c-.1-.3-.1-.7-.1-1 0-2.2 1.8-4 4-4 .4 0 .7.1 1 .1V29c-.3 0-.7.1-1 .1zM32 39c-3.3 0-6-2.7-6-6s2.7-6 6-6 6 2.7 6 6-2.7 6-6 6z" class="st2"/><path d="M48 21H16c-.3 0-.5 0-.8.1-1.8.4-3.2 2-3.2 3.9V40.9c0 2.2 1.8 4 4 4H47.9c2 0 3.6-1.4 3.9-3.2.2-.2.2-.4.2-.7V25c0-2.2-1.8-4-4-4zm0 16c-2.2 0-4 1.8-4 4 0 .3.1.7.1 1H19.9c.1-.3.1-.7.1-1 0-2.2-1.8-4-4-4-.3 0-.7.1-1 .1v-8.2c.3.1.7.1 1 .1 2.2 0 4-1.8 4-4 0-.4-.1-.7-.1-1h24.2c-.1.3-.1.7-.1 1 0 2.2 1.8 4 4 4 .4 0 .7-.1 1-.1v8.2c-.3-.1-.7-.1-1-.1z" class="st2"/><circle cx="32" cy="33" r="6" class="st2"/></g><path d="M14 42c-1.7 0-3-1.3-3-3V23c0-1.7 1.3-3 3-3h32c1.7 0 3 1.3 3 3v16c0 1.7-1.3 3-3 3H14z" class="st3"/><path d="M46 21c1.1 0 2 .9 2 2v16c0 1.1-.9 2-2 2H14c-1.1 0-2-.9-2-2V23c0-1.1.9-2 2-2h32m0-2H14c-2.2 0-4 1.8-4 4v16c0 2.2 1.8 4 4 4h32c2.2 0 4-1.8 4-4V23c0-2.2-1.8-4-4-4z" class="st4"/><circle cx="30" cy="31" r="6" class="st0"/><circle cx="46" cy="23" r="4" class="st4"/><circle cx="14" cy="23" r="4" class="st4"/><circle cx="46" cy="39" r="4" class="st4"/><g><circle cx="14" cy="39" r="4" class="st4"/></g></g></g></svg>