<svg xmlns="http://www.w3.org/2000/svg" viewBox="-10 -5 800 800"><path fill="#61afef" d="M389-5Q224-5 108 112-10 232-10 396t118.5 281.5Q227 795 389 795q166 0 287-118 114-114 114-281.5t-116.5-284Q557-5 389-5Zm2 72q136 0 231 97 96 94 96 231.5T624 625q-100 97-234 97t-231-96.5Q62 529 62 396t98-232q94-97 231-96Zm-3 118q-69 0-116.5 40T212 339h-31l79 79 79-79h-29q10-71 90-71 44 0 67.5 33.5T491 398q0 61-25.5 97.5T398 532q-84 0-88-73H209q10 75 59.5 115.5T386 615q92 0 150-61t58-153q0-95-56-155.5T388 185Z"/></svg>