<svg xmlns="http://www.w3.org/2000/svg" xml:space="preserve" viewBox="0 0 64 64"><style>.st1{opacity:.2}.st2{fill:#231f20}</style><g id="Layer_1"><circle cx="32" cy="32" r="32" fill="#e0995e"/><g class="st1"><path d="M48 52.5c-.6 0-1.3-.2-1.8-.7l-12-12c-1-1-1-2.6 0-3.5 1-1 2.6-1 3.5 0l12 12c1 1 1 2.6 0 3.5-.4.5-1.1.7-1.7.7z" class="st2"/></g><path fill="#4f5d73" d="M48 50.5c-.6 0-1.3-.2-1.8-.7l-12-12c-1-1-1-2.6 0-3.5 1-1 2.6-1 3.5 0l12 12c1 1 1 2.6 0 3.5-.4.5-1.1.7-1.7.7z"/><circle cx="28.4" cy="28.4" r="10.6" fill="#77b3d4"/><g class="st1"><path d="M28.4 19.8c2.7 0 5.4 1 7.5 3.1 4.1 4.1 4.1 10.8 0 14.9-2.1 2.1-4.8 3.1-7.5 3.1s-5.4-1-7.5-3.1c-4.1-4.1-4.1-10.8 0-14.9 2.1-2 4.8-3.1 7.5-3.1zm0-4c-3.9 0-7.5 1.5-10.3 4.3-5.7 5.7-5.7 14.9 0 20.6 2.8 2.8 6.4 4.3 10.3 4.3s7.5-1.5 10.3-4.3c5.7-5.7 5.7-14.9 0-20.6-2.8-2.8-6.4-4.3-10.3-4.3z" class="st2"/></g><path fill="#fff" d="M28.4 17.8c2.7 0 5.4 1 7.5 3.1 4.1 4.1 4.1 10.8 0 14.9-2.1 2.1-4.8 3.1-7.5 3.1s-5.4-1-7.5-3.1c-4.1-4.1-4.1-10.8 0-14.9 2.1-2 4.8-3.1 7.5-3.1m0-4c-3.9 0-7.5 1.5-10.3 4.3-5.7 5.7-5.7 14.9 0 20.6 2.8 2.8 6.4 4.3 10.3 4.3s7.5-1.5 10.3-4.3c5.7-5.7 5.7-14.9 0-20.6-2.8-2.8-6.4-4.3-10.3-4.3z"/></g></svg>