<svg xmlns="http://www.w3.org/2000/svg" xml:space="preserve" id="svg840" x="0" y="0" version="1.1" viewBox="0 0 64 64">
  <style id="style824" type="text/css">
    .st1{opacity:.2}.st2{fill:#231f20}.st3{fill:#f5cf87}
  </style>
  <g id="g6077">
    <circle id="circle826" cx="32" cy="32" r="32" fill="#f5cf87" style="fill-opacity:1;fill:#4f5d73"/>
    <path id="path3369-3" fill="#231f20" stroke-width=".32" d="M12 34v20h40V14H12Zm32.234-1.6a4.98 4.98 0 0 1 2.502 1.44 6.586 6.586 0 0 1 .96 1.28c0 .051-1.728 1.22-2.78 1.872-.04.026-.193-.14-.362-.394a2.269 2.269 0 0 0-1.879-1.13c-1.213-.082-1.993.554-1.987 1.6a1.466 1.466 0 0 0 .173.75c.265.553.761.883 2.317 1.555 2.864 1.232 4.09 2.045 4.85 3.2.852 1.28 1.04 3.347.465 4.877-.64 1.664-2.208 2.793-4.426 3.168a12.262 12.262 0 0 1-3.046-.032 7.36 7.36 0 0 1-4.061-2.096c-.368-.407-1.085-1.466-1.04-1.543a2.989 2.989 0 0 1 .368-.233l1.472-.845 1.149-.666.24.355a5.37 5.37 0 0 0 1.517 1.453c1.28.672 3.027.58 3.89-.198a1.738 1.738 0 0 0 .222-2.215c-.32-.444-.96-.819-2.75-1.6-2.063-.89-2.953-1.44-3.766-2.316a5.274 5.274 0 0 1-1.097-2 8 8 0 0 1-.07-2.56c.425-1.994 1.92-3.386 4.102-3.799a10.131 10.131 0 0 1 3.037.083zm-9.39 1.677v1.638h-5.193V50.51h-3.683V35.712h-5.206v-1.6a15.74 15.74 0 0 1 .044-1.651c.02-.026 3.2-.039 7.04-.032h6.98z" opacity=".2" style="fill-opacity:1"/>
    <path id="path3369" fill="#77b3d4" stroke-width=".32" d="M12 32v20h40V12H12Zm32.234-1.6a4.98 4.98 0 0 1 2.502 1.44 6.586 6.586 0 0 1 .96 1.28c0 .051-1.728 1.22-2.78 1.872-.04.026-.193-.14-.362-.394a2.269 2.269 0 0 0-1.879-1.13c-1.213-.082-1.993.554-1.987 1.6a1.466 1.466 0 0 0 .173.75c.265.553.761.883 2.317 1.555 2.864 1.232 4.09 2.045 4.85 3.2.852 1.28 1.04 3.347.465 4.877-.64 1.664-2.208 2.793-4.426 3.168a12.262 12.262 0 0 1-3.046-.032 7.36 7.36 0 0 1-4.061-2.096c-.368-.407-1.085-1.466-1.04-1.543a2.989 2.989 0 0 1 .368-.233l1.472-.845 1.149-.666.24.355a5.37 5.37 0 0 0 1.517 1.453c1.28.672 3.027.58 3.89-.198a1.738 1.738 0 0 0 .222-2.215c-.32-.444-.96-.819-2.75-1.6-2.063-.89-2.953-1.44-3.766-2.316a5.274 5.274 0 0 1-1.097-2 8 8 0 0 1-.07-2.56c.425-1.994 1.92-3.386 4.102-3.799a10.131 10.131 0 0 1 3.037.083zm-9.39 1.677v1.638h-5.193V48.51h-3.683V33.712h-5.206v-1.6a15.74 15.74 0 0 1 .044-1.651c.02-.026 3.2-.039 7.04-.032h6.98z" style="fill-opacity:1"/>
  </g>
</svg>
