<svg xmlns="http://www.w3.org/2000/svg" xml:space="preserve" id="svg87" x="0" y="0" version="1.1" viewBox="0 0 64 64"><style id="style43" type="text/css">.st1{opacity:.2}.st2{fill:#231f20}.st3{fill:#4f5d73}.st5{fill:#fff}</style><g id="Layer_1"><g id="g47"><circle id="circle45" cx="32" cy="32" r="32" fill="#c75c5c" fill-opacity="1"/></g><g id="g51" class="st1"><path id="path49" d="M49.9 46.2 35.8 32.1c-1-1-2.5-1.4-3.8-1l-8.1-8-3-5.9-5.9-3-2.9 2.8 3 5.9 5.9 3 8.1 8c-.4 1.3 0 2.8 1 3.8l14.1 14.1c1.6 1.6 4.1 1.6 5.7 0 1.6-1.5 1.6-4 0-5.6z" class="st2"/></g><g id="g55"><path id="polygon53" d="M34.5 37.3 18.4 21.4l2.9-2.8 16.1 15.9z" class="st3"/></g><g id="g59"><path id="path57" fill="#f5cf87" d="M49.9 49.9c-1.6 1.6-4.1 1.6-5.7 0L30.1 35.8c-1.6-1.6-1.6-4.1 0-5.7 1.6-1.6 4.1-1.6 5.7 0l14.1 14.1c1.6 1.6 1.6 4.1 0 5.7z"/></g><g id="g63" class="st1"><path id="path61" d="m53.3 18.4-6.5 6.5c-1.6 1.6-4.1 1.6-5.7 0-1.6-1.6-1.6-4.1 0-5.7l6.5-6.5c-1.1-.4-2.3-.7-3.6-.7-5.5 0-10 4.5-10 10 0 1.3.3 2.5.7 3.6l-11 11c-1.2-.3-2.4-.6-3.7-.6-5.5 0-10 4.5-10 10 0 1.3.3 2.5.7 3.6l6.5-6.5c1.6-1.6 4.1-1.6 5.7 0 1.6 1.6 1.6 4.1 0 5.7l-6.5 6.5c1.1.4 2.4.7 3.6.7 5.5 0 10-4.5 10-10 0-1.3-.3-2.5-.7-3.6l11-11c1.1.4 2.4.7 3.6.7 5.5 0 10-4.5 10-10 .1-1.4-.2-2.6-.6-3.7z" class="st2"/></g><g id="g67"><path id="rect65" d="M23.4 28h17.1v8H23.4z" class="st5" transform="rotate(-45.001 32 32)"/></g><g id="g71"><path id="polygon69" d="m20.8 15.2 3.1 5.9-2.9 2.8-5.9-3-3-5.9 2.8-2.9z" class="st3"/></g><g id="g77"><g id="g75"><path id="path73" d="M46.8 22.8c-1.6 1.6-4.1 1.6-5.7 0-1.6-1.6-1.6-4.1 0-5.7l6.5-6.5c-1.1-.3-2.3-.6-3.6-.6-5.5 0-10 4.5-10 10s4.5 10 10 10 10-4.5 10-10c0-1.3-.3-2.5-.7-3.6z" class="st5"/></g></g><g id="g83"><g id="g81"><path id="path79" d="M17.2 41.2c1.6-1.6 4.1-1.6 5.7 0 1.6 1.6 1.6 4.1 0 5.7l-6.5 6.5c1.1.4 2.4.7 3.6.7 5.5 0 10-4.5 10-10s-4.5-10-10-10-10 4.5-10 10c0 1.3.3 2.5.7 3.6z" class="st5"/></g></g></g></svg>