<svg xmlns="http://www.w3.org/2000/svg" xml:space="preserve" viewBox="0 0 64 64"><circle cx="32" cy="32" r="32" fill="#e0e0d1"/><path fill="#231f20" d="M47.8 17H32.2c-.4 0-1.2.6-1.3.7L12.7 35.9c-1 1-1 2.5 0 3.5l13.9 13.9c.5.5 1.1.7 1.7.7.6 0 1.3-.2 1.7-.7l18.1-18.1c.1-.1.7-.9.7-1.3V18.2c.2-.7-.3-1.2-1-1.2zM44 24c-1.1 0-2-.9-2-2s.9-2 2-2 2 .9 2 2-.9 2-2 2z" opacity=".2"/><path fill="#c75c5c" d="M47.8 15H32.2c-.4 0-1.2.6-1.3.7L12.7 33.9c-1 1-1 2.5 0 3.5l13.9 13.9c.5.5 1.1.7 1.7.7.6 0 1.3-.2 1.7-.7l18.1-18.1c.1-.1.7-.9.7-1.3V16.2c.2-.7-.3-1.2-1-1.2zM44 22c-1.1 0-2-.9-2-2s.9-2 2-2 2 .9 2 2-.9 2-2 2z"/></svg>